# xmcd CD database file
#
# Track frame offsets:
#       150
#       16072
#       30823
#       48888
#       67237
#       87072
#       98362
#       113952
#       138164
#       156572
#       181538
#       199966
#       221638
#       236361
#
# Disc length: 3409 seconds
#
# Revision: 0
# Processed by: cddbd v1.5.2PL0 Copyright (c) Steve Scherf et al.
# Submitted via: jack 3.1.1
#
DISCID=aa0d4f0e
DTITLE=Gaelle Buswel - Black to blue
DYEAR=2014
DGENRE=blues
TTITLE0=Secret Door
TTITLE1=Lya
TTITLE2=The Jocker
TTITLE3=Nobody Knows You
TTITLE4=Selfish Game
TTITLE5=Black To Blue
TTITLE6=Romance Trap
TTITLE7=Confessions and Lies
TTITLE8=Somehow
TTITLE9=The Weight
TTITLE10=I Don't Need Nobody
TTITLE11=Black Delta Dirt
TTITLE12=Lingering Shadow
TTITLE13=For You
EXTD=
EXTT0=
EXTT1=
EXTT2=
EXTT3=
EXTT4=
EXTT5=
EXTT6=
EXTT7=
EXTT8=
EXTT9=
EXTT10=
EXTT11=
EXTT12=
EXTT13=
PLAYORDER=
